<svg id="Слой_3" data-name="Слой 3" xmlns="http://www.w3.org/2000/svg" viewBox="0 0 1900 1500"><defs><style>.cls-1{fill:#fff;opacity:0.4;}</style></defs><path class="cls-1" d="M355.07,940l23.84,23.84a17.79,17.79,0,0,1,0,25.16L321.7,1046.2a17.79,17.79,0,0,1-25.16,0L239.33,989a17.79,17.79,0,0,1,0-25.16L263.17,940a17.8,17.8,0,0,1,25.16,0l8.21,8.22a17.79,17.79,0,0,0,25.16,0l8.21-8.22A17.8,17.8,0,0,1,355.07,940Z"/><path class="cls-1" d="M56,1241.5l15.89,15.89a11.86,11.86,0,0,1,0,16.77L33.7,1312.3a11.84,11.84,0,0,1-16.77,0l-38.14-38.14a11.86,11.86,0,0,1,0-16.77l15.89-15.89a11.86,11.86,0,0,1,16.77,0l5.48,5.48a11.86,11.86,0,0,0,16.77,0l5.48-5.48A11.86,11.86,0,0,1,56,1241.5Z"/><path class="cls-1" d="M666.66,543l47.67,47.67a35.59,35.59,0,0,1,0,50.32L599.91,755.38a35.57,35.57,0,0,1-50.32,0L435.17,641a35.59,35.59,0,0,1,0-50.32L482.85,543a35.56,35.56,0,0,1,50.31,0l16.43,16.43a35.59,35.59,0,0,0,50.32,0L616.34,543A35.57,35.57,0,0,1,666.66,543Z"/><path class="cls-1" d="M1021.94,284.31l23.84,23.83a17.79,17.79,0,0,1,0,25.16l-57.21,57.21a17.79,17.79,0,0,1-25.16,0L906.2,333.3a17.8,17.8,0,0,1,0-25.16L930,284.31a17.79,17.79,0,0,1,25.16,0l8.21,8.21a17.79,17.79,0,0,0,25.16,0l8.22-8.21A17.77,17.77,0,0,1,1021.94,284.31Z"/><path class="cls-1" d="M1355.9-17.65,1403.57,30a35.57,35.57,0,0,1,0,50.32L1289.15,194.76a35.59,35.59,0,0,1-50.32,0L1124.41,80.34a35.59,35.59,0,0,1,0-50.32l47.68-47.67a35.56,35.56,0,0,1,50.31,0l16.43,16.43a35.59,35.59,0,0,0,50.32,0l16.43-16.43A35.57,35.57,0,0,1,1355.9-17.65Z"/><path class="cls-1" d="M666.66,1152.52l47.67,47.68a35.58,35.58,0,0,1,0,50.31L599.91,1364.93a35.57,35.57,0,0,1-50.32,0L435.17,1250.51a35.58,35.58,0,0,1,0-50.31l47.68-47.68a35.58,35.58,0,0,1,50.31,0L549.59,1169a35.57,35.57,0,0,0,50.32,0l16.43-16.43A35.59,35.59,0,0,1,666.66,1152.52Z"/><path class="cls-1" d="M1950.07,3.32,1997.75,51a35.59,35.59,0,0,1,0,50.32L1883.32,215.73a35.56,35.56,0,0,1-50.31,0L1718.59,101.31a35.57,35.57,0,0,1,0-50.32l47.67-47.67a35.59,35.59,0,0,1,50.32,0L1833,19.75a35.56,35.56,0,0,0,50.31,0l16.43-16.43A35.59,35.59,0,0,1,1950.07,3.32Z"/><path class="cls-1" d="M932.47,893.86l23.84,23.84a17.79,17.79,0,0,1,0,25.15l-57.21,57.21a17.79,17.79,0,0,1-25.16,0l-57.21-57.21a17.77,17.77,0,0,1,0-25.15l23.83-23.84a17.79,17.79,0,0,1,25.16,0l8.22,8.21a17.79,17.79,0,0,0,25.16,0l8.21-8.21A17.79,17.79,0,0,1,932.47,893.86Z"/><path class="cls-1" d="M1659.46,362.6l23.84,23.83a17.8,17.8,0,0,1,0,25.16l-57.22,57.21a17.77,17.77,0,0,1-25.15,0l-57.21-57.21a17.79,17.79,0,0,1,0-25.16l23.83-23.83a17.79,17.79,0,0,1,25.16,0l8.22,8.21a17.77,17.77,0,0,0,25.15,0l8.22-8.21A17.79,17.79,0,0,1,1659.46,362.6Z"/><path class="cls-1" d="M1659.46,893.86l23.84,23.84a17.79,17.79,0,0,1,0,25.15l-57.22,57.21a17.77,17.77,0,0,1-25.15,0l-57.21-57.21a17.77,17.77,0,0,1,0-25.15l23.83-23.84a17.79,17.79,0,0,1,25.16,0l8.22,8.21a17.77,17.77,0,0,0,25.15,0l8.22-8.21A17.79,17.79,0,0,1,1659.46,893.86Z"/><path class="cls-1" d="M1390.66,522l71.52,71.51a53.38,53.38,0,0,1,0,75.48L1290.54,840.64a53.37,53.37,0,0,1-75.47,0L1043.44,669a53.38,53.38,0,0,1,0-75.48L1115,522a53.37,53.37,0,0,1,75.47,0l24.65,24.65a53.37,53.37,0,0,0,75.47,0L1315.19,522A53.37,53.37,0,0,1,1390.66,522Z"/><path class="cls-1" d="M932.47,1374.79l23.84,23.84a17.79,17.79,0,0,1,0,25.15L899.1,1481a17.79,17.79,0,0,1-25.16,0l-57.21-57.21a17.77,17.77,0,0,1,0-25.15l23.83-23.84a17.79,17.79,0,0,1,25.16,0l8.22,8.21a17.79,17.79,0,0,0,25.16,0l8.21-8.21A17.79,17.79,0,0,1,932.47,1374.79Z"/><path class="cls-1" d="M1244.05,1056.06l47.68,47.67a35.59,35.59,0,0,1,0,50.32l-114.42,114.42a35.59,35.59,0,0,1-50.32,0l-114.42-114.42a35.57,35.57,0,0,1,0-50.32l47.67-47.67a35.57,35.57,0,0,1,50.32,0l16.43,16.43a35.59,35.59,0,0,0,50.32,0l16.43-16.43A35.56,35.56,0,0,1,1244.05,1056.06Z"/><path class="cls-1" d="M355.07,453.47l23.84,23.84a17.79,17.79,0,0,1,0,25.16L321.7,559.68a17.8,17.8,0,0,1-25.16,0l-57.21-57.21a17.79,17.79,0,0,1,0-25.16l23.84-23.84a17.79,17.79,0,0,1,25.16,0l8.21,8.22a17.8,17.8,0,0,0,25.16,0l8.21-8.22A17.79,17.79,0,0,1,355.07,453.47Z"/><path class="cls-1" d="M1632.9,1247.57l23.83,23.83a17.79,17.79,0,0,1,0,25.16l-57.21,57.21a17.79,17.79,0,0,1-25.16,0l-57.21-57.21a17.8,17.8,0,0,1,0-25.16l23.84-23.83a17.79,17.79,0,0,1,25.16,0l8.21,8.21a17.79,17.79,0,0,0,25.16,0l8.22-8.21A17.79,17.79,0,0,1,1632.9,1247.57Z"/><path class="cls-1" d="M117.22,684.17l47.67,47.68a35.56,35.56,0,0,1,0,50.31L50.47,896.58a35.56,35.56,0,0,1-50.31,0L-114.26,782.16a35.56,35.56,0,0,1,0-50.31l47.67-47.68a35.59,35.59,0,0,1,50.32,0L.16,700.6a35.56,35.56,0,0,0,50.31,0L66.9,684.17A35.59,35.59,0,0,1,117.22,684.17Z"/><path class="cls-1" d="M1973.84,684.17l47.67,47.68a35.56,35.56,0,0,1,0,50.31L1907.09,896.58a35.56,35.56,0,0,1-50.31,0L1742.35,782.16a35.58,35.58,0,0,1,0-50.31L1790,684.17a35.58,35.58,0,0,1,50.31,0l16.44,16.43a35.56,35.56,0,0,0,50.31,0l16.43-16.43A35.59,35.59,0,0,1,1973.84,684.17Z"/><path class="cls-1" d="M666.66,42.47l47.67,47.67a35.59,35.59,0,0,1,0,50.32L599.91,254.88a35.59,35.59,0,0,1-50.32,0L435.17,140.46a35.59,35.59,0,0,1,0-50.32l47.68-47.67a35.56,35.56,0,0,1,50.31,0L549.59,58.9a35.59,35.59,0,0,0,50.32,0l16.43-16.43A35.57,35.57,0,0,1,666.66,42.47Z"/><path class="cls-1" d="M163.17,52.27l71.51,71.52a53.35,53.35,0,0,1,0,75.47L63.05,370.89a53.37,53.37,0,0,1-75.47,0L-184,199.26a53.35,53.35,0,0,1,0-75.47l71.51-71.52a53.37,53.37,0,0,1,75.47,0l24.65,24.65a53.37,53.37,0,0,0,75.47,0L87.7,52.27A53.37,53.37,0,0,1,163.17,52.27Z"/></svg>