<svg xmlns="http://www.w3.org/2000/svg" width="64" height="64.723" viewBox="0 0 64 64.723"><defs><style>.a{fill:#dbe8d8;}.b{fill:#fff;}</style></defs><g transform="translate(-365.724 -391.331)"><g transform="translate(365.724 398.889)"><path class="a" d="M391,402.744H374.454a8.73,8.73,0,0,0-8.73,8.73v39.705a8.73,8.73,0,0,0,8.73,8.73h39.705a8.73,8.73,0,0,0,8.73-8.73V434.636a8.73,8.73,0,0,0-8.73-8.73h-5.7a8.73,8.73,0,0,1-8.73-8.73v-5.7A8.73,8.73,0,0,0,391,402.744Z" transform="translate(-365.724 -402.744)"/><rect class="b" width="40.32" height="4.166" rx="2.083" transform="translate(8.423 38.161)"/><rect class="b" width="17.291" height="4.166" rx="2.083" transform="translate(8.422 25.952)"/><rect class="b" width="17.291" height="4.166" rx="2.083" transform="translate(8.422 13.743)"/></g><path class="a" d="M449.947,401.844,439.9,391.8a1.7,1.7,0,0,0-2.341,0l-10.046,10.047a1.655,1.655,0,0,0,2.341,2.341l7.219-7.22v16a1.656,1.656,0,0,0,3.311,0v-16l7.221,7.22a1.655,1.655,0,0,0,2.341-2.341Z" transform="translate(-20.708)"/></g></svg>