<svg xmlns="http://www.w3.org/2000/svg" width="24" height="22.66" viewBox="0 0 24 22.66"><defs><style>.a{fill:#e43d40;}</style></defs><path class="a" d="M308.223,595.578l2.657-2.657a2.846,2.846,0,0,0,0-4.025l-3.814-3.814a2.846,2.846,0,0,0-4.025,0l-1.314,1.315a2.846,2.846,0,0,1-4.025,0l-1.314-1.315a2.846,2.846,0,0,0-4.025,0l-3.814,3.814a2.846,2.846,0,0,0,0,4.025l2.657,2.657-2.657,2.657a2.846,2.846,0,0,0,0,4.025l3.814,3.814a2.846,2.846,0,0,0,4.025,0l1.314-1.315a2.846,2.846,0,0,1,4.025,0l1.314,1.315a2.846,2.846,0,0,0,4.025,0l3.814-3.814a2.846,2.846,0,0,0,0-4.025Z" transform="translate(-287.714 -584.248)"/></svg>