<svg xmlns="http://www.w3.org/2000/svg" width="32" height="32" viewBox="0 0 32 32"><defs><style>.a{fill:#dbe8d8;}.b{fill:#fff;}</style></defs><g transform="translate(-192.365 -402.744)"><path class="a" d="M206.513,402.744h-9.261a4.887,4.887,0,0,0-4.887,4.887v22.226a4.887,4.887,0,0,0,4.887,4.887h22.226a4.887,4.887,0,0,0,4.887-4.887V420.6a4.887,4.887,0,0,0-4.887-4.887h-3.192a4.887,4.887,0,0,1-4.887-4.887v-3.192A4.887,4.887,0,0,0,206.513,402.744Z"/><rect class="b" width="22.57" height="2.332" rx="1.166" transform="translate(197.08 424.106)"/><rect class="b" width="9.679" height="2.332" rx="1.166" transform="translate(197.079 417.271)"/><rect class="b" width="9.679" height="2.332" rx="1.166" transform="translate(197.079 410.437)"/></g></svg>