<svg xmlns="http://www.w3.org/2000/svg" width="37.173" height="37.173" viewBox="0 0 37.173 37.173"><defs><style>.a{fill:#ffd300;}.b{fill:#fff;}</style></defs><path class="a" d="M163.095,200.026H152.337a5.677,5.677,0,0,0-5.677,5.677v25.819a5.677,5.677,0,0,0,5.677,5.677h25.819a5.677,5.677,0,0,0,5.677-5.677V220.764a5.677,5.677,0,0,0-5.677-5.677h-3.708a5.677,5.677,0,0,1-5.677-5.677V205.7A5.677,5.677,0,0,0,163.095,200.026Z" transform="translate(-146.66 -200.026)"/><rect class="b" width="26.219" height="2.709" rx="1.355" transform="translate(5.477 24.815)"/><rect class="b" width="11.244" height="2.709" rx="1.355" transform="translate(5.476 16.876)"/><rect class="b" width="11.244" height="2.709" rx="1.355" transform="translate(5.476 8.937)"/></svg>