<svg xmlns="http://www.w3.org/2000/svg" width="83.965" height="31.003" viewBox="0 0 83.965 31.003"><defs><style>.a{fill:#495668;}</style></defs><g transform="translate(0 0)"><path class="a" d="M266.489,224.806a1.205,1.205,0,0,1-.314-.878V213.151a1.12,1.12,0,0,1,.332-.841,1.17,1.17,0,0,1,.85-.324h8.726a1.11,1.11,0,0,1,1.164,1.165v10.8a1.162,1.162,0,0,1-.323.86,1.268,1.268,0,0,1-1.692,0,1.181,1.181,0,0,1-.314-.86V213.89h-6.4v10.057a1.112,1.112,0,0,1-1.183,1.183A1.129,1.129,0,0,1,266.489,224.806Z" transform="translate(-266.175 -211.986)"/><path class="a" d="M305.217,221.335a3.93,3.93,0,0,1,1.424,1.673,5.788,5.788,0,0,1,.508,2.486,5.607,5.607,0,0,1-.508,2.459,3.732,3.732,0,0,1-3.5,2.2,3.581,3.581,0,0,1-1.719-.406,2.853,2.853,0,0,1-1.165-1.128v3.771a.959.959,0,0,1-.314.758,1.212,1.212,0,0,1-.832.277,1.2,1.2,0,0,1-.841-.3,1,1,0,0,1-.324-.776V221.872a1.057,1.057,0,0,1,.305-.795,1.131,1.131,0,0,1,.823-.3,1.165,1.165,0,0,1,.832.3,1.039,1.039,0,0,1,.314.795v.462a2.835,2.835,0,0,1,1.174-1.174,3.6,3.6,0,0,1,1.747-.416A3.749,3.749,0,0,1,305.217,221.335Zm-.989,6.276a3.269,3.269,0,0,0,.61-2.117,3.456,3.456,0,0,0-.61-2.182,2.279,2.279,0,0,0-3.411-.019,3.412,3.412,0,0,0-.6,2.163,3.377,3.377,0,0,0,.6,2.145,2.307,2.307,0,0,0,3.411.009Z" transform="translate(-284.262 -216.973)"/><path class="a" d="M324.775,229.58a3.961,3.961,0,0,1-1.618-1.645,5.218,5.218,0,0,1-.573-2.5,5.164,5.164,0,0,1,.573-2.486,3.98,3.98,0,0,1,1.618-1.636,5.441,5.441,0,0,1,4.862,0,3.925,3.925,0,0,1,1.608,1.636,5.237,5.237,0,0,1,.564,2.486,5.292,5.292,0,0,1-.564,2.5,3.907,3.907,0,0,1-1.608,1.645,5.441,5.441,0,0,1-4.862,0Zm4.132-1.959a4.3,4.3,0,0,0,0-4.354,2.041,2.041,0,0,0-1.7-.749,2.065,2.065,0,0,0-1.71.749,4.271,4.271,0,0,0-.009,4.354,2.051,2.051,0,0,0,1.7.739A2.072,2.072,0,0,0,328.907,227.621Z" transform="translate(-298.293 -216.973)"/><path class="a" d="M348.611,230.022a1.062,1.062,0,0,1-.314-.813v-6.784a1.13,1.13,0,0,1,.277-.85,1.063,1.063,0,0,1,.813-.314h3.42a4.17,4.17,0,0,1,2.412.61,1.974,1.974,0,0,1,.878,1.719,2.047,2.047,0,0,1-.407,1.239,2.327,2.327,0,0,1-1.165.813,2.479,2.479,0,0,1,1.34.74,1.994,1.994,0,0,1,.472,1.368,2.241,2.241,0,0,1-.915,1.821,4.007,4.007,0,0,1-2.56.73h-3.4A1.132,1.132,0,0,1,348.611,230.022Zm4.843-5.361a.984.984,0,0,0,.37-.813q0-1.035-1.424-1.035H350.59v2.144h1.83A1.616,1.616,0,0,0,353.455,224.66Zm.574,2.921q0-1.165-1.553-1.164H350.59v2.329h1.885Q354.028,228.746,354.028,227.581Z" transform="translate(-312.933 -217.266)"/><path class="a" d="M378.4,227.769a1,1,0,0,1,.194.647,1.121,1.121,0,0,1-.684.961,6.16,6.16,0,0,1-1.424.564,5.869,5.869,0,0,1-1.516.213,4.711,4.711,0,0,1-3.457-1.257,4.61,4.61,0,0,1-1.276-3.439A5.275,5.275,0,0,1,370.79,223a4.036,4.036,0,0,1,1.562-1.664,4.429,4.429,0,0,1,2.283-.591,4.1,4.1,0,0,1,2.126.536,3.633,3.633,0,0,1,1.4,1.516,5.025,5.025,0,0,1,.5,2.311q0,.8-.7.795H372.51a2.906,2.906,0,0,0,.721,1.877,2.426,2.426,0,0,0,1.775.6,3.365,3.365,0,0,0,1.044-.148,10.252,10.252,0,0,0,1.026-.407,2.047,2.047,0,0,1,.813-.3A.624.624,0,0,1,378.4,227.769Zm-5.214-4.807a2.793,2.793,0,0,0-.674,1.7h4.178a2.642,2.642,0,0,0-.555-1.71,1.829,1.829,0,0,0-1.442-.582A1.985,1.985,0,0,0,373.184,222.962Z" transform="translate(-325.425 -216.973)"/><path class="a" d="M401.464,221.335a3.93,3.93,0,0,1,1.424,1.673,5.788,5.788,0,0,1,.508,2.486,5.606,5.606,0,0,1-.508,2.459,3.732,3.732,0,0,1-3.5,2.2,3.581,3.581,0,0,1-1.719-.406,2.853,2.853,0,0,1-1.165-1.128v3.771a.959.959,0,0,1-.314.758,1.212,1.212,0,0,1-.832.277,1.2,1.2,0,0,1-.841-.3,1,1,0,0,1-.323-.776V221.872a1.055,1.055,0,0,1,.305-.795,1.13,1.13,0,0,1,.823-.3,1.165,1.165,0,0,1,.832.3,1.039,1.039,0,0,1,.314.795v.462a2.835,2.835,0,0,1,1.174-1.174,3.6,3.6,0,0,1,1.747-.416A3.749,3.749,0,0,1,401.464,221.335Zm-.989,6.276a3.266,3.266,0,0,0,.61-2.117,3.453,3.453,0,0,0-.61-2.182,2.279,2.279,0,0,0-3.411-.019,3.412,3.412,0,0,0-.6,2.163,3.377,3.377,0,0,0,.6,2.145,2.307,2.307,0,0,0,3.411.009Z" transform="translate(-339.064 -216.973)"/><path class="a" d="M426.469,225.747a6.783,6.783,0,0,1,.934,1.368l.813,1.405a1.165,1.165,0,0,1,.167.573.966.966,0,0,1-.342.749,1.17,1.17,0,0,1-.8.305,1.049,1.049,0,0,1-.962-.592l-1.164-2.07a2.949,2.949,0,0,0-.758-.906,1.859,1.859,0,0,0-1.072-.259h-.721v2.736a1.063,1.063,0,0,1-.314.813,1.192,1.192,0,0,1-.851.3,1.156,1.156,0,0,1-.841-.3,1.078,1.078,0,0,1-.305-.813v-7.135a1.039,1.039,0,0,1,.314-.795,1.164,1.164,0,0,1,.832-.3,1.192,1.192,0,0,1,.851.3,1.04,1.04,0,0,1,.314.795V224.6h.832l2.644-3.291a1.077,1.077,0,0,1,.869-.481.948.948,0,0,1,.943.943,1.207,1.207,0,0,1-.3.758l-2.126,2.569A2.806,2.806,0,0,1,426.469,225.747Z" transform="translate(-353.901 -217.022)"/><path class="a" d="M449.685,221.678a3.908,3.908,0,0,1,.915,2.838v4.51a1.044,1.044,0,0,1-.3.786,1.121,1.121,0,0,1-.814.287,1.082,1.082,0,0,1-.785-.3,1.032,1.032,0,0,1-.3-.777v-.407a2.414,2.414,0,0,1-.989,1.128,2.97,2.97,0,0,1-1.562.406,3.627,3.627,0,0,1-1.645-.369,2.922,2.922,0,0,1-1.165-1.017,2.565,2.565,0,0,1-.425-1.442,2.284,2.284,0,0,1,.509-1.571,3.056,3.056,0,0,1,1.654-.832,15.086,15.086,0,0,1,3.162-.259h.462v-.425a1.892,1.892,0,0,0-.389-1.322,1.651,1.651,0,0,0-1.257-.416,3.992,3.992,0,0,0-1.091.157q-.555.157-1.313.453a1.847,1.847,0,0,1-.7.24.7.7,0,0,1-.546-.24.914.914,0,0,1-.212-.628.947.947,0,0,1,.157-.546,1.489,1.489,0,0,1,.527-.435,6.039,6.039,0,0,1,1.544-.555,7.979,7.979,0,0,1,1.765-.2A3.766,3.766,0,0,1,449.685,221.678Zm-1.867,6.193a2.238,2.238,0,0,0,.583-1.6v-.388h-.333a12.716,12.716,0,0,0-1.922.111,1.863,1.863,0,0,0-.98.388.988.988,0,0,0-.3.757,1.254,1.254,0,0,0,.416.971,1.468,1.468,0,0,0,1.026.379A1.973,1.973,0,0,0,447.818,227.87Z" transform="translate(-366.636 -216.973)"/></g><g transform="translate(0 19.283)"><path class="a" d="M266.49,266.135a1.04,1.04,0,0,1-.314-.8v-6.9a1.132,1.132,0,0,1,.277-.85,1.064,1.064,0,0,1,.813-.314h6.193a1.135,1.135,0,0,1,.85.277,1.064,1.064,0,0,1,.314.813v6.969a1.041,1.041,0,0,1-.314.8,1.168,1.168,0,0,1-.832.3,1.192,1.192,0,0,1-.85-.3,1.04,1.04,0,0,1-.314-.8v-6.322h-3.827v6.322a1.041,1.041,0,0,1-.314.8,1.193,1.193,0,0,1-.85.3A1.166,1.166,0,0,1,266.49,266.135Z" transform="translate(-266.175 -257.058)"/><path class="a" d="M292.28,265.6a3.961,3.961,0,0,1-1.618-1.645,5.218,5.218,0,0,1-.573-2.5,5.164,5.164,0,0,1,.573-2.486,3.98,3.98,0,0,1,1.618-1.636,5.441,5.441,0,0,1,4.862,0,3.925,3.925,0,0,1,1.608,1.636,5.237,5.237,0,0,1,.564,2.486,5.291,5.291,0,0,1-.564,2.5,3.907,3.907,0,0,1-1.608,1.645,5.441,5.441,0,0,1-4.862,0Zm4.132-1.959a4.3,4.3,0,0,0,0-4.354,2.041,2.041,0,0,0-1.7-.749,2.065,2.065,0,0,0-1.71.749,4.271,4.271,0,0,0-.009,4.354,2.051,2.051,0,0,0,1.7.739A2.072,2.072,0,0,0,296.412,263.643Z" transform="translate(-279.791 -256.766)"/><path class="a" d="M313.856,268.492a1.086,1.086,0,0,1-.287-.8v-1.941a1.13,1.13,0,0,1,.277-.85,1.017,1.017,0,0,1,.776-.314h.2a6.847,6.847,0,0,0,.749-2.163,16.577,16.577,0,0,0,.213-2.847v-1.127a1.13,1.13,0,0,1,.277-.85,1.064,1.064,0,0,1,.813-.314h4.567a1.133,1.133,0,0,1,.85.277,1.063,1.063,0,0,1,.314.813v6.212h.3a1.133,1.133,0,0,1,.851.277,1.065,1.065,0,0,1,.314.813v2.015a1.087,1.087,0,0,1-.286.8,1.184,1.184,0,0,1-1.544,0,1.11,1.11,0,0,1-.277-.8V266.32H315.7v1.368a1.089,1.089,0,0,1-.286.8,1.061,1.061,0,0,1-.786.286A1.035,1.035,0,0,1,313.856,268.492Zm6.461-9.474h-2.532v.554a15.206,15.206,0,0,1-.268,3.051,5.2,5.2,0,0,1-.749,1.96h3.549Z" transform="translate(-293.16 -257.058)"/><path class="a" d="M341.831,266.135a1.04,1.04,0,0,1-.314-.8v-6.9a1.128,1.128,0,0,1,.277-.85,1.063,1.063,0,0,1,.813-.314H348.8a1.133,1.133,0,0,1,.85.277,1.063,1.063,0,0,1,.314.813v6.969a1.04,1.04,0,0,1-.314.8,1.166,1.166,0,0,1-.832.3,1.192,1.192,0,0,1-.85-.3,1.04,1.04,0,0,1-.314-.8v-6.322h-3.826v6.322a1.04,1.04,0,0,1-.315.8,1.191,1.191,0,0,1-.85.3A1.166,1.166,0,0,1,341.831,266.135Z" transform="translate(-309.073 -257.058)"/><path class="a" d="M373.2,257.037a1.622,1.622,0,0,1,.841-.185,1.224,1.224,0,0,1,.86.3,1.024,1.024,0,0,1,.324.795v7.117a1.121,1.121,0,0,1-.305.814,1.047,1.047,0,0,1-.785.314,1.071,1.071,0,0,1-.8-.314,1.121,1.121,0,0,1-.305-.814v-5.213l-3.919,5.49a2.163,2.163,0,0,1-.675.675,1.668,1.668,0,0,1-.8.176,1.191,1.191,0,0,1-.85-.3,1.061,1.061,0,0,1-.314-.814v-7.117a1.047,1.047,0,0,1,1.109-1.109,1.064,1.064,0,0,1,.786.3,1.089,1.089,0,0,1,.305.8v5.176l3.863-5.4A2.555,2.555,0,0,1,373.2,257.037Z" transform="translate(-323.276 -256.815)"/><path class="a" d="M393.237,265.6a3.9,3.9,0,0,1-1.581-1.626,5.663,5.663,0,0,1,.028-4.945,4.116,4.116,0,0,1,1.636-1.673,4.864,4.864,0,0,1,2.421-.591,5.406,5.406,0,0,1,1.451.2,4.823,4.823,0,0,1,1.285.555,1.145,1.145,0,0,1,.591.98,1.042,1.042,0,0,1-.194.656.613.613,0,0,1-.508.249,1.093,1.093,0,0,1-.425-.093,3.644,3.644,0,0,1-.444-.222,5.035,5.035,0,0,0-.776-.379,2.411,2.411,0,0,0-.85-.139,2.162,2.162,0,0,0-1.766.749,3.3,3.3,0,0,0-.619,2.154,3.264,3.264,0,0,0,.619,2.135,2.162,2.162,0,0,0,1.766.749,2.276,2.276,0,0,0,.822-.139,6.972,6.972,0,0,0,.8-.379,3.629,3.629,0,0,1,.481-.249,1.065,1.065,0,0,1,.407-.084.615.615,0,0,1,.5.259,1.018,1.018,0,0,1,.2.647,1.043,1.043,0,0,1-.139.546,1.248,1.248,0,0,1-.453.416,4.842,4.842,0,0,1-1.331.582,5.728,5.728,0,0,1-1.553.213A4.785,4.785,0,0,1,393.237,265.6Z" transform="translate(-337.306 -256.766)"/><path class="a" d="M419.82,257.037a1.622,1.622,0,0,1,.841-.185,1.224,1.224,0,0,1,.859.3,1.024,1.024,0,0,1,.324.795v7.117a1.119,1.119,0,0,1-.305.814,1.047,1.047,0,0,1-.785.314,1.071,1.071,0,0,1-.8-.314,1.121,1.121,0,0,1-.305-.814v-5.213l-3.919,5.49a2.166,2.166,0,0,1-.675.675,1.67,1.67,0,0,1-.8.176,1.191,1.191,0,0,1-.85-.3,1.061,1.061,0,0,1-.314-.814v-7.117a1.048,1.048,0,0,1,1.109-1.109,1.063,1.063,0,0,1,.786.3,1.089,1.089,0,0,1,.305.8v5.176l3.863-5.4A2.561,2.561,0,0,1,419.82,257.037Z" transform="translate(-349.821 -256.815)"/></g></svg>