<svg id="Слой_4" data-name="Слой 4" xmlns="http://www.w3.org/2000/svg" viewBox="0 0 1900 1500"><defs><style>.cls-1{fill:#fff;opacity:0.4;}</style></defs><path class="cls-1" d="M1038.75,750.21,1072,717a35.56,35.56,0,0,0,0-50.31L1024.29,619A35.59,35.59,0,0,0,974,619l-16.43,16.44a35.59,35.59,0,0,1-50.32,0L890.79,619a35.58,35.58,0,0,0-50.31,0L792.8,666.68a35.58,35.58,0,0,0,0,50.31L826,750.21,792.8,783.42a35.58,35.58,0,0,0,0,50.31l47.68,47.68a35.58,35.58,0,0,0,50.31,0L907.22,865a35.57,35.57,0,0,1,50.32,0L974,881.41a35.59,35.59,0,0,0,50.32,0L1072,833.73a35.56,35.56,0,0,0,0-50.31Z"/><path class="cls-1" d="M1995,54l33.21-33.22a35.56,35.56,0,0,0,0-50.31l-47.67-47.68a35.59,35.59,0,0,0-50.32,0L1913.81-60.8a35.57,35.57,0,0,1-50.32,0l-16.43-16.43a35.58,35.58,0,0,0-50.31,0l-47.68,47.68a35.58,35.58,0,0,0,0,50.31L1782.28,54l-33.21,33.21a35.58,35.58,0,0,0,0,50.31l47.68,47.68a35.58,35.58,0,0,0,50.31,0l16.43-16.43a35.57,35.57,0,0,1,50.32,0l16.43,16.43a35.59,35.59,0,0,0,50.32,0l47.67-47.68a35.56,35.56,0,0,0,0-50.31Z"/><path class="cls-1" d="M1515.83,1207.37l33.22-33.21a35.59,35.59,0,0,0,0-50.32l-47.68-47.67a35.56,35.56,0,0,0-50.31,0l-16.43,16.43a35.59,35.59,0,0,1-50.32,0l-16.43-16.43a35.57,35.57,0,0,0-50.32,0l-47.67,47.67a35.57,35.57,0,0,0,0,50.32l33.21,33.21-33.21,33.21a35.57,35.57,0,0,0,0,50.32l47.67,47.67a35.57,35.57,0,0,0,50.32,0l16.43-16.43a35.59,35.59,0,0,1,50.32,0l16.43,16.43a35.56,35.56,0,0,0,50.31,0l47.68-47.67a35.59,35.59,0,0,0,0-50.32Z"/><path class="cls-1" d="M102.4,892.81l33.21-33.21a35.57,35.57,0,0,0,0-50.32L87.94,761.61a35.57,35.57,0,0,0-50.32,0L21.19,778a35.58,35.58,0,0,1-50.31,0l-16.44-16.43a35.56,35.56,0,0,0-50.31,0l-47.68,47.67a35.59,35.59,0,0,0,0,50.32l33.22,33.21L-143.55,926a35.59,35.59,0,0,0,0,50.32L-95.87,1024a35.56,35.56,0,0,0,50.31,0l16.44-16.43a35.58,35.58,0,0,1,50.31,0L37.62,1024a35.57,35.57,0,0,0,50.32,0l47.67-47.67a35.57,35.57,0,0,0,0-50.32Z"/><path class="cls-1" d="M510.58,1064.77l16.6-16.61a17.77,17.77,0,0,0,0-25.15l-23.84-23.84a17.77,17.77,0,0,0-25.15,0l-8.22,8.21a17.79,17.79,0,0,1-25.16,0l-8.21-8.21a17.79,17.79,0,0,0-25.16,0L387.6,1023a17.79,17.79,0,0,0,0,25.15l16.61,16.61-16.61,16.61a17.79,17.79,0,0,0,0,25.15l23.84,23.84a17.79,17.79,0,0,0,25.16,0l8.21-8.22a17.8,17.8,0,0,1,25.16,0l8.22,8.22a17.77,17.77,0,0,0,25.15,0l23.84-23.84a17.77,17.77,0,0,0,0-25.15Z"/><path class="cls-1" d="M1500.4,414.67l16.61-16.6a17.8,17.8,0,0,0,0-25.16l-23.84-23.84a17.79,17.79,0,0,0-25.16,0l-8.22,8.22a17.77,17.77,0,0,1-25.15,0l-8.22-8.22a17.79,17.79,0,0,0-25.16,0l-23.83,23.84a17.79,17.79,0,0,0,0,25.16l16.6,16.6-16.6,16.61a17.79,17.79,0,0,0,0,25.16l23.83,23.83a17.79,17.79,0,0,0,25.16,0l8.22-8.21a17.77,17.77,0,0,1,25.15,0l8.22,8.21a17.79,17.79,0,0,0,25.16,0L1517,456.44a17.8,17.8,0,0,0,0-25.16Z"/><path class="cls-1" d="M1957.56,1199l16.61-16.6a17.79,17.79,0,0,0,0-25.16l-23.84-23.84a17.79,17.79,0,0,0-25.16,0l-8.21,8.22a17.8,17.8,0,0,1-25.16,0l-8.22-8.22a17.77,17.77,0,0,0-25.15,0l-23.84,23.84a17.79,17.79,0,0,0,0,25.16l16.61,16.6-16.61,16.61a17.79,17.79,0,0,0,0,25.16l23.84,23.83a17.77,17.77,0,0,0,25.15,0l8.22-8.21a17.79,17.79,0,0,1,25.16,0l8.21,8.21a17.79,17.79,0,0,0,25.16,0l23.84-23.83a17.79,17.79,0,0,0,0-25.16Z"/><path class="cls-1" d="M82.77,45.59,99.38,29a17.8,17.8,0,0,0,0-25.16L75.54-20a17.79,17.79,0,0,0-25.16,0L42.17-11.8A17.79,17.79,0,0,1,17-11.8L8.79-20a17.77,17.77,0,0,0-25.15,0L-40.2,3.82A17.79,17.79,0,0,0-40.2,29l16.6,16.61-16.6,16.6a17.79,17.79,0,0,0,0,25.16l23.84,23.84a17.77,17.77,0,0,0,25.15,0L17,103a17.8,17.8,0,0,1,25.16,0l8.21,8.22a17.79,17.79,0,0,0,25.16,0L99.38,87.35a17.8,17.8,0,0,0,0-25.16Z"/><path class="cls-1" d="M561.66,253.2,594.87,220a35.57,35.57,0,0,0,0-50.32L547.2,122a35.57,35.57,0,0,0-50.32,0l-16.43,16.43a35.58,35.58,0,0,1-50.31,0L413.71,122a35.57,35.57,0,0,0-50.32,0l-47.67,47.67a35.57,35.57,0,0,0,0,50.32l33.21,33.21-33.21,33.21a35.57,35.57,0,0,0,0,50.32l47.67,47.67a35.57,35.57,0,0,0,50.32,0L430.14,368a35.58,35.58,0,0,1,50.31,0l16.43,16.43a35.57,35.57,0,0,0,50.32,0l47.67-47.67a35.57,35.57,0,0,0,0-50.32Z"/><path class="cls-1" d="M782.9,1433.86l33.22-33.22a35.58,35.58,0,0,0,0-50.31l-47.68-47.68a35.58,35.58,0,0,0-50.31,0l-16.44,16.43a35.56,35.56,0,0,1-50.31,0L635,1302.65a35.59,35.59,0,0,0-50.32,0L537,1350.33a35.56,35.56,0,0,0,0,50.31l33.21,33.22L537,1467.07a35.56,35.56,0,0,0,0,50.31l47.67,47.68a35.59,35.59,0,0,0,50.32,0l16.43-16.43a35.56,35.56,0,0,1,50.31,0l16.44,16.43a35.58,35.58,0,0,0,50.31,0l47.68-47.68a35.58,35.58,0,0,0,0-50.31Z"/><path class="cls-1" d="M2010.75,762.79,2044,729.58a35.59,35.59,0,0,0,0-50.32l-47.68-47.67a35.56,35.56,0,0,0-50.31,0L1929.54,648a35.59,35.59,0,0,1-50.32,0l-16.43-16.43a35.56,35.56,0,0,0-50.31,0l-47.68,47.67a35.59,35.59,0,0,0,0,50.32L1798,762.79,1764.8,796a35.59,35.59,0,0,0,0,50.32L1812.48,894a35.56,35.56,0,0,0,50.31,0l16.43-16.43a35.59,35.59,0,0,1,50.32,0L1946,894a35.56,35.56,0,0,0,50.31,0L2044,846.32a35.59,35.59,0,0,0,0-50.32Z"/><path class="cls-1" d="M1236.92,14.13l33.22-33.21a35.59,35.59,0,0,0,0-50.32l-47.68-47.67a35.56,35.56,0,0,0-50.31,0l-16.44,16.43a35.58,35.58,0,0,1-50.31,0L1089-117.07a35.57,35.57,0,0,0-50.32,0L991-69.4a35.57,35.57,0,0,0,0,50.32l33.21,33.21L991,47.34a35.57,35.57,0,0,0,0,50.32l47.67,47.67a35.57,35.57,0,0,0,50.32,0l16.43-16.43a35.58,35.58,0,0,1,50.31,0l16.44,16.43a35.56,35.56,0,0,0,50.31,0l47.68-47.67a35.59,35.59,0,0,0,0-50.32Z"/></svg>