<svg id="Слой_1" data-name="Слой 1" xmlns="http://www.w3.org/2000/svg" viewBox="0 0 1028 1028"><defs><style>.cls-1{fill:#fff;opacity:0.3;}</style></defs><path class="cls-1" d="M972.07,913.42a19.82,19.82,0,0,1-14.36-10.08c-33.34-61.41-51.84-117.2-55.51-167.91-33.31,7-82.14,12.35-134.69,1.74-21.36,11.21-40.88,16.63-48,17.66-69.93,10.1-132.33-12-165.86-23.79l-.91-.33q-34.51-12.18-67.05-37.7c-64.8,30.78-140.54,36.75-209.62,13.83-118.49-39.3-164-144.83-171.9-165.58a19.36,19.36,0,0,1,11.68-25,20,20,0,0,1,25.58,11.43c6.81,17.86,45.93,108.67,147.4,142.33,54.05,17.92,112.88,15.16,165-5.62a440.48,440.48,0,0,1-39.71-47c-30.25-41-80.87-109.64-64.59-195C355.32,392,376.4,318.6,446.91,292.88c64.22-23.42,135.22,6.24,169.43,46,32.06,37.32,41.84,91.94,27.53,153.8-12.8,55.31-43.2,109.44-83.42,148.5a275.57,275.57,0,0,1-37.54,30.53,186.88,186.88,0,0,0,43.16,22.31l1.08.38c31.14,11,82.48,29.14,139.8,22.75-23.08-11.69-45-30.13-59.08-63.49-15.06-35.64,2.82-96.6,47.59-118.84,54.42-27,105.76,14.48,107.92,16.25,33.87,27.93,40.68,70.24,36.22,98-3.55,22.12-14,40.19-27.4,54.74a311.62,311.62,0,0,0,90.27-8.34c4.43-49,24.32-92.81,59.68-132.05,32.19-35.73,70.42-56.7,102.26-56.11a62,62,0,0,1,47.78,22.8c8.17,9.79,16.42,26.61,9.33,51.2-14.58,50.54-93.37,113.21-179.9,143.31,1.64,46.9,18.85,100.84,51.21,160.45a19.27,19.27,0,0,1-8.23,26.32A20.25,20.25,0,0,1,972.07,913.42ZM743,565.47a48.11,48.11,0,0,0-29.56,4.09c-20.08,10-38.36,46.74-28.84,69.27C697.78,670,720,682.69,749.19,692.16q5.94,1.94,11.86,3.5c18.23-11.88,35.5-29.18,39.27-52.63,2.85-17.74-1.35-44.67-22.57-62.16C777.54,580.7,762.38,568.57,743,565.47ZM513,325c-17.33-2.77-35.36-1.82-52.24,4.33-51.49,18.78-67.63,76.3-72.18,100.16-13.16,69,29.51,126.82,57.74,165.09A385.3,385.3,0,0,0,491,645.75a237.62,237.62,0,0,0,41.47-32.17c34.48-33.49,61.63-81.89,72.64-129.47,11.51-49.7,4.69-92.37-19.18-120.14C569.68,345.09,542.37,329.72,513,325Zm554.47,221.55a27.84,27.84,0,0,0-3.85-.34c-19.41-.35-48.22,16.9-71.69,42.94-25.4,28.19-41,58.74-47.31,92.63a370.31,370.31,0,0,0,86.13-49.15c27.89-21.58,47.5-44.71,52.45-61.9,2.62-9.08.39-13.32-1.85-16A21.93,21.93,0,0,0,1067.51,546.57Z"/><path class="cls-1" d="M233.07,467.93a20.47,20.47,0,0,1-15.76-8.76c-40.79-59.1-65.84-114-75.18-165.35-33.2,10.67-82.41,21.29-137.17,16-20.54,13.7-39.85,21.29-47,23.09-70.19,17.72-136.27,1.84-171.77-6.69l-1-.23q-36.54-8.77-72.54-31.34C-350,332.94-426.6,347.05-499.58,331c-125.19-27.53-183.24-130.32-193.61-150.65A19.76,19.76,0,0,1-684,153.58a20.6,20.6,0,0,1,27.35,8.95c8.92,17.49,58.86,106,166.06,129.52,57.1,12.56,116.79,3.51,167.65-23.2a454.59,454.59,0,0,1-45.68-43.7c-35.39-38.61-94.61-103.24-87.45-192,2.55-31.58,15.93-108.67,85-142.37,62.9-30.69,138.59-8,177.87,29,36.83,34.66,52.85,89.32,45.09,153.93-6.93,57.76-32,116.18-68.64,160.27a280.5,280.5,0,0,1-34.91,35.12,192.39,192.39,0,0,0,46.48,18.17l1.14.28c33,7.92,87.34,21,145.09,8.39-24.83-9.47-49.22-26-67.28-58.49-19.29-34.75-7.8-98.81,35.39-126.23C-38.39,77.83,18.56,114.72,21,116.31c37.63,24.89,49.25,67.31,47.78,96.07-1.18,22.94-9.84,42.48-21.9,58.73A318.58,318.58,0,0,0,138,253c-.9-50.42,14.54-97.22,46.25-141,28.88-39.84,65.55-65.28,98.09-68a63.88,63.88,0,0,1,51.25,18.19c9.41,9.11,19.68,25.4,15.17,51.22-9.27,53.09-82.69,125.35-167.61,165.22,6.86,47.65,30.38,100.83,70,158.2a19.69,19.69,0,0,1-5.48,27.71A20.68,20.68,0,0,1,233.07,467.93ZM-39,137.35c-9.64-.53-20,1.16-29.7,7.3-19.38,12.3-33.95,51.73-21.75,73.7,16.87,30.4,40.88,41,71.75,47.55q6.27,1.34,12.48,2.32c17.28-14.06,33-33.53,34.23-57.84C29,192,21.69,165-1.88,149.38-2.12,149.23-18.92,138.46-39,137.35ZM-300.14-83.49c-18-1-36.26,1.89-52.79,10-50.43,24.6-60.53,85-62.53,109.79-5.79,71.74,44.12,126.2,77.14,162.24a397,397,0,0,0,51.16,47.43,242.68,242.68,0,0,0,38.73-37.2c31.45-37.8,53.79-90,59.76-139.73,6.23-51.9-5.44-94.7-32.86-120.49C-240.16-69-269.71-81.81-300.14-83.49Zm590,167.18a29.31,29.31,0,0,0-4,.07C266,85.45,238.55,106.1,217.5,135.15c-22.79,31.44-35.36,64.24-38,99.48a377.69,377.69,0,0,0,82.41-59.26c26.05-25,43.49-50.63,46.64-68.68,1.67-9.54-1.08-13.63-3.66-16.13A22.67,22.67,0,0,0,289.82,83.69Z"/><path class="cls-1" d="M721.57,43.86a20.78,20.78,0,0,1,18-1.77q102.27,37.74,159,92.42c20.79-27.48,54.67-64,102.47-90.68,8.67-22.79,20-39.9,24.73-45.43,46.82-54.16,110.12-78.58,144.13-91.7l.93-.36q35-13.5,77.71-15.45c28.57-66.67,82.73-121.5,151.77-149.68,118.42-48.35,226.5,2.7,247,13.43a19.74,19.74,0,0,1,8.35,27,20.62,20.62,0,0,1-27.6,8.17c-17.62-9.23-110.61-53.18-212-11.78a240.93,240.93,0,0,0-123.12,113.77A468.92,468.92,0,0,1,1356-98.37c51.68,11.5,138.17,30.75,184.75,107.27,16.57,27.21,51.17,97.69,14.71,164.26-33.21,60.63-108.4,84.89-162.28,77-50.52-7.46-95.87-43-127.69-100.12C1237.05,98.93,1223,37.1,1226.88-19.64A272.5,272.5,0,0,1,1234.63-68,193.48,193.48,0,0,0,1186-56.58l-1.1.42c-31.59,12.19-83.66,32.28-123.36,75.22,25.86-6.32,55.5-6.66,89.44,9.67,36.27,17.45,64.72,76.23,45.66,123.05-23.17,56.9-91.43,59-94.32,59.06-45.41,1-79.95-27.07-95.73-51.38-12.58-19.38-17-40.23-16.81-60.31A309.22,309.22,0,0,0,926,165.45c30.51,40.64,45.55,87.56,45.51,141.22,0,48.85-14.95,90.35-39.86,111-15,12.4-33.13,17.29-52.57,14.14-13.06-2.12-31.06-9.6-42.63-33.22C812.72,350,830,249.54,875.72,169,842,134,791.4,103.86,725.21,79.44a19.78,19.78,0,0,1-3.64-35.58Zm417.22,115.9c8.18-5,15.66-12.27,19.93-22.76,8.55-21-2.84-61.42-25.77-72.45-31.71-15.26-57.57-10.33-86.63,1.78q-5.91,2.46-11.55,5.17c-5.8,21.24-7.11,46,6.22,66.56,10.09,15.54,32,33.48,60.41,32.88C1101.68,170.93,1121.75,170.21,1138.79,159.76Zm343.51,32.52c15.26-9.36,28.49-22.05,37.21-38,26.63-48.61-.77-103.59-13.79-125-37.64-61.82-110.53-78-158.76-88.77a408.94,408.94,0,0,0-69.75-9.78,234.56,234.56,0,0,0-9.64,52.27c-3.35,48.64,9.26,103.91,33.73,147.83,25.56,45.89,60.35,74.21,98,79.75C1424.81,214.4,1456.48,208.12,1482.3,192.28ZM902.12,389.54a29.17,29.17,0,0,0,3.2-2.3c15.19-12.6,25.42-45,25.44-80.6,0-38.55-9.07-72.43-27.71-102.69a364.15,364.15,0,0,0-32.27,95c-6.53,35.11-5.6,65.92,2.49,82.44,4.27,8.73,8.93,10.51,12.51,11.09C892,393.45,897.25,392.53,902.12,389.54Z"/><path class="cls-1" d="M-414.48,1086.87a20.71,20.71,0,0,1,18-1.77c68.19,25.16,121.06,55.82,159,92.42,20.8-27.49,54.68-64,102.47-90.68,8.68-22.8,20-39.91,24.73-45.43,46.82-54.17,110.13-78.58,144.13-91.7l.93-.36c23.33-9,49.29-14.15,77.71-15.46,28.57-66.66,82.74-121.5,151.78-149.68,118.41-48.34,226.49,2.71,247,13.43a19.75,19.75,0,0,1,8.35,27,20.62,20.62,0,0,1-27.6,8.17c-17.61-9.23-110.6-53.18-212-11.78A240.85,240.85,0,0,0,156.87,934.82,467.52,467.52,0,0,1,220,944.64c51.68,11.5,138.17,30.74,184.76,107.26,16.56,27.21,51.16,97.7,14.7,164.26-33.21,60.63-108.4,84.9-162.28,76.95-50.52-7.45-95.87-43-127.68-100.11-28.45-51.07-42.53-112.9-38.62-169.63A272.36,272.36,0,0,1,98.59,975a193.66,193.66,0,0,0-48.67,11.46l-1.09.42C17.24,999-34.84,1019.12-74.54,1062.06c25.86-6.31,55.51-6.65,89.44,9.68,36.27,17.45,64.72,76.23,45.66,123-23.17,56.9-91.43,59-94.32,59.07-45.41,1-79.94-27.08-95.72-51.38-12.58-19.39-17.06-40.23-16.81-60.32a309.21,309.21,0,0,0-63.71,66.3c30.51,40.65,45.55,87.57,45.5,141.22,0,48.85-14.94,90.35-39.86,111-14.95,12.4-33.13,17.29-52.57,14.14-13.06-2.11-31.06-9.59-42.63-33.22-23.77-48.57-6.52-149.07,39.24-229.63-33.74-35-84.33-65.11-150.51-89.53a19.84,19.84,0,0,1-11.89-25.72A19.92,19.92,0,0,1-414.48,1086.87ZM2.75,1202.76c8.18-5,15.65-12.27,19.92-22.76,8.56-21-2.84-61.41-25.76-72.44-31.72-15.27-57.57-10.33-86.63,1.77q-5.91,2.46-11.56,5.18c-5.8,21.24-7.11,46,6.22,66.55,10.09,15.55,32,33.49,60.41,32.88C-34.37,1213.93-14.3,1213.21,2.75,1202.76Zm343.51,32.53c15.26-9.36,28.48-22.06,37.21-38,26.62-48.61-.78-103.59-13.8-125-37.64-61.82-110.52-78-158.75-88.77a410,410,0,0,0-69.76-9.78,235.24,235.24,0,0,0-9.64,52.27c-3.35,48.64,9.26,103.91,33.73,147.84,25.57,45.88,60.35,74.2,98,79.75C288.77,1257.41,320.43,1251.13,346.26,1235.29Zm-580.18,197.25a28.7,28.7,0,0,0,3.19-2.3c15.19-12.6,25.42-45,25.45-80.6,0-38.55-9.08-72.43-27.72-102.68a364.39,364.39,0,0,0-32.27,95c-6.52,35.1-5.59,65.92,2.49,82.43,4.28,8.73,8.93,10.51,12.51,11.09C-244.08,1436.45-238.8,1435.53-233.92,1432.54Z"/></svg>