<svg id="Слой_2" data-name="Слой 2" xmlns="http://www.w3.org/2000/svg" viewBox="0 0 1900 1500"><defs><style>.cls-1{fill:#fff;opacity:0.4;}</style></defs><path class="cls-1" d="M386.61,530.69l23.83-23.84a17.79,17.79,0,0,0,0-25.16l-57.21-57.21a17.79,17.79,0,0,0-25.15,0l-57.22,57.21a17.8,17.8,0,0,0,0,25.16l23.84,23.84a17.79,17.79,0,0,0,25.16,0l8.22-8.22a17.79,17.79,0,0,1,25.15,0l8.22,8.22A17.79,17.79,0,0,0,386.61,530.69Z"/><path class="cls-1" d="M87.48,229.18l15.9-15.89a11.86,11.86,0,0,0,0-16.77L65.24,158.38a11.87,11.87,0,0,0-16.78,0L10.32,196.52a11.86,11.86,0,0,0,0,16.77l15.89,15.89a11.87,11.87,0,0,0,16.78,0l5.47-5.47a11.85,11.85,0,0,1,16.78,0l5.47,5.47A11.86,11.86,0,0,0,87.48,229.18Z"/><path class="cls-1" d="M698.19,927.71,745.86,880a35.57,35.57,0,0,0,0-50.32L631.44,715.3a35.58,35.58,0,0,0-50.31,0L466.71,829.72a35.57,35.57,0,0,0,0,50.32l47.67,47.67a35.57,35.57,0,0,0,50.32,0l16.43-16.43a35.58,35.58,0,0,1,50.31,0l16.43,16.43A35.57,35.57,0,0,0,698.19,927.71Z"/><path class="cls-1" d="M964,1108.09l23.84-23.84a17.79,17.79,0,0,0,0-25.16l-57.21-57.21a17.79,17.79,0,0,0-25.16,0l-57.21,57.21a17.79,17.79,0,0,0,0,25.16l23.84,23.84a17.8,17.8,0,0,0,25.16,0l8.21-8.22a17.79,17.79,0,0,1,25.16,0l8.22,8.22A17.79,17.79,0,0,0,964,1108.09Z"/><path class="cls-1" d="M1275.59,1426.82l47.67-47.68a35.56,35.56,0,0,0,0-50.31l-114.42-114.42a35.57,35.57,0,0,0-50.32,0L1044.1,1328.83a35.58,35.58,0,0,0,0,50.31l47.68,47.68a35.58,35.58,0,0,0,50.31,0l16.43-16.43a35.57,35.57,0,0,1,50.32,0l16.43,16.43A35.59,35.59,0,0,0,1275.59,1426.82Z"/><path class="cls-1" d="M698.19,318.16l47.67-47.67a35.57,35.57,0,0,0,0-50.32L631.44,105.75a35.58,35.58,0,0,0-50.31,0L466.71,220.17a35.57,35.57,0,0,0,0,50.32l47.67,47.67a35.57,35.57,0,0,0,50.32,0l16.43-16.43a35.58,35.58,0,0,1,50.31,0l16.43,16.43A35.57,35.57,0,0,0,698.19,318.16Z"/><path class="cls-1" d="M1981.6,1467.36l47.68-47.67a35.59,35.59,0,0,0,0-50.32L1914.86,1255a35.59,35.59,0,0,0-50.32,0l-114.42,114.42a35.59,35.59,0,0,0,0,50.32l47.68,47.67a35.56,35.56,0,0,0,50.31,0l16.43-16.43a35.59,35.59,0,0,1,50.32,0l16.43,16.43A35.56,35.56,0,0,0,1981.6,1467.36Z"/><path class="cls-1" d="M964,576.82,987.84,553a17.79,17.79,0,0,0,0-25.16l-57.21-57.21a17.79,17.79,0,0,0-25.16,0l-57.21,57.21a17.79,17.79,0,0,0,0,25.16l23.84,23.83a17.79,17.79,0,0,0,25.16,0l8.21-8.21a17.79,17.79,0,0,1,25.16,0l8.22,8.21A17.77,17.77,0,0,0,964,576.82Z"/><path class="cls-1" d="M1691,1108.09l23.84-23.84a17.79,17.79,0,0,0,0-25.16l-57.21-57.21a17.79,17.79,0,0,0-25.16,0l-57.21,57.21a17.79,17.79,0,0,0,0,25.16l23.84,23.84a17.8,17.8,0,0,0,25.16,0l8.21-8.22a17.79,17.79,0,0,1,25.16,0l8.22,8.22A17.79,17.79,0,0,0,1691,1108.09Z"/><path class="cls-1" d="M1691,576.82,1714.83,553a17.79,17.79,0,0,0,0-25.16l-57.21-57.21a17.79,17.79,0,0,0-25.16,0l-57.21,57.21a17.79,17.79,0,0,0,0,25.16l23.84,23.83a17.79,17.79,0,0,0,25.16,0l8.21-8.21a17.79,17.79,0,0,1,25.16,0l8.22,8.21A17.77,17.77,0,0,0,1691,576.82Z"/><path class="cls-1" d="M1422.2,948.66l71.51-71.51a53.37,53.37,0,0,0,0-75.47L1322.08,630a53.37,53.37,0,0,0-75.47,0L1075,801.68a53.37,53.37,0,0,0,0,75.47l71.52,71.51a53.37,53.37,0,0,0,75.47,0L1246.61,924a53.37,53.37,0,0,1,75.47,0l24.65,24.65A53.37,53.37,0,0,0,1422.2,948.66Z"/><path class="cls-1" d="M964,95.89l23.84-23.83a17.79,17.79,0,0,0,0-25.16L930.63-10.31a17.79,17.79,0,0,0-25.16,0L848.26,46.9a17.79,17.79,0,0,0,0,25.16L872.1,95.89a17.79,17.79,0,0,0,25.16,0l8.21-8.21a17.79,17.79,0,0,1,25.16,0l8.22,8.21A17.77,17.77,0,0,0,964,95.89Z"/><path class="cls-1" d="M1275.59,414.63,1323.26,367a35.56,35.56,0,0,0,0-50.31L1208.84,202.22a35.57,35.57,0,0,0-50.32,0L1044.1,316.64a35.58,35.58,0,0,0,0,50.31l47.68,47.68a35.58,35.58,0,0,0,50.31,0l16.43-16.43a35.57,35.57,0,0,1,50.32,0l16.43,16.43A35.59,35.59,0,0,0,1275.59,414.63Z"/><path class="cls-1" d="M386.61,1017.21l23.83-23.84a17.77,17.77,0,0,0,0-25.15L353.23,911a17.77,17.77,0,0,0-25.15,0l-57.22,57.21a17.79,17.79,0,0,0,0,25.15l23.84,23.84a17.79,17.79,0,0,0,25.16,0l8.22-8.21a17.77,17.77,0,0,1,25.15,0l8.22,8.21A17.79,17.79,0,0,0,386.61,1017.21Z"/><path class="cls-1" d="M1664.43,223.12l23.84-23.84a17.8,17.8,0,0,0,0-25.16l-57.21-57.21a17.79,17.79,0,0,0-25.16,0l-57.21,57.21a17.79,17.79,0,0,0,0,25.16l23.84,23.84a17.79,17.79,0,0,0,25.15,0l8.22-8.22a17.79,17.79,0,0,1,25.16,0l8.21,8.22A17.8,17.8,0,0,0,1664.43,223.12Z"/><path class="cls-1" d="M148.75,786.51l47.68-47.68a35.58,35.58,0,0,0,0-50.31L82,574.1a35.57,35.57,0,0,0-50.32,0L-82.73,688.52a35.58,35.58,0,0,0,0,50.31L-35,786.51a35.58,35.58,0,0,0,50.31,0l16.43-16.43a35.57,35.57,0,0,1,50.32,0l16.43,16.43A35.58,35.58,0,0,0,148.75,786.51Z"/><path class="cls-1" d="M2005.37,786.51l47.68-47.68a35.58,35.58,0,0,0,0-50.31L1938.62,574.1a35.56,35.56,0,0,0-50.31,0L1773.89,688.52a35.56,35.56,0,0,0,0,50.31l47.67,47.68a35.59,35.59,0,0,0,50.32,0l16.43-16.43a35.56,35.56,0,0,1,50.31,0l16.44,16.43A35.58,35.58,0,0,0,2005.37,786.51Z"/><path class="cls-1" d="M698.19,1428.22l47.67-47.68a35.56,35.56,0,0,0,0-50.31L631.44,1215.81a35.56,35.56,0,0,0-50.31,0L466.71,1330.23a35.56,35.56,0,0,0,0,50.31l47.67,47.68a35.59,35.59,0,0,0,50.32,0l16.43-16.43a35.56,35.56,0,0,1,50.31,0l16.43,16.43A35.59,35.59,0,0,0,698.19,1428.22Z"/><path class="cls-1" d="M194.71,1418.41l71.51-71.51a53.38,53.38,0,0,0,0-75.48L94.59,1099.79a53.38,53.38,0,0,0-75.48,0l-171.63,171.63a53.38,53.38,0,0,0,0,75.48L-81,1418.41a53.38,53.38,0,0,0,75.48,0l24.64-24.65a53.38,53.38,0,0,1,75.48,0l24.64,24.65A53.38,53.38,0,0,0,194.71,1418.41Z"/></svg>